<svg width="200" height="200" viewBox="0 0 200 200" fill="none" xmlns="http://www.w3.org/2000/svg">
<path fill-rule="evenodd" clip-rule="evenodd" d="M141.449 78.5861L146.592 64.2823H146.698L151.685 78.5829L141.449 78.5861ZM115.677 87.9351C111.047 87.9432 106.958 85.9222 106.945 80.7477L101.197 80.7412C100.338 73.0723 92.2891 71.4196 89.5621 70.746C79.6913 68.2419 77.8044 67.851 77.7995 64.8526C77.8124 61.573 81.0063 60.4228 83.7656 60.4276C87.9159 60.4276 91.2714 61.615 91.5557 66.3146H99.9209C100.331 73.0222 106.002 75.1709 111.645 76.6313C117.449 78.1612 123.365 78.864 123.369 83.0724C123.365 87.0547 118.73 87.9335 115.677 87.9351ZM48.6167 78.6168L53.7541 64.313H53.8704L58.8446 78.62L48.6167 78.6168ZM142.275 54.6618L131.761 82.095C131.748 73.242 122.919 71.439 120.045 70.7395C110.152 68.2193 108.278 67.8607 108.275 64.838C108.28 61.5585 111.482 60.4115 114.241 60.4196C118.393 60.4163 121.755 61.615 122.036 66.3065H130.432C130.42 57.2919 122.855 53.7491 114.633 53.7539C107.59 53.7475 100.089 57.4842 99.9015 65.25C99.3118 57.0334 92.0468 53.7604 84.1388 53.7685C77.0305 53.7685 69.4069 57.5972 69.4133 65.5666C69.4133 72.8946 75.3262 75.1192 81.176 76.6491C86.9805 78.179 92.8917 78.8866 92.8836 83.0869C92.8836 87.0757 88.2536 87.9464 85.2212 87.9545C80.5701 87.9642 76.4942 85.9351 76.4877 80.7477H68.1952L58.326 54.6925H49.4471L34.4971 93.7074L43.2726 93.688L46.3663 85.011H61.1225L64.1031 93.6864H73.1L71.7171 90.0353C74.8964 93.1533 79.7834 94.6137 84.8852 94.604C92.777 94.6121 97.9402 91.6928 100.111 87.2921C102.869 92.3116 108.961 94.6056 115.368 94.5992C121.561 94.5992 126.06 92.8011 128.763 89.9061L127.323 93.6654H136.102L139.196 84.982L153.954 84.9706L156.933 93.6573H165.942L151.177 54.6618H142.275Z" fill="#1A1A1A"/>
<path fill-rule="evenodd" clip-rule="evenodd" d="M110.149 122.743C110.137 111.16 117.325 102.148 129.527 102.161C141.732 102.14 148.928 111.151 148.92 122.735C148.928 133.982 141.755 143 129.548 143C123.483 143.008 118.662 140.783 115.344 137.168L115.378 141.977L90.2939 142.079L90.176 103.024L98.8432 102.985L98.9612 134.882L113.557 134.835C111.271 131.221 110.086 127.019 110.149 122.743ZM129.548 135.796C121.752 135.8 118.833 129.245 118.82 122.746C118.818 115.921 121.737 109.366 129.535 109.362C137.325 109.362 140.248 115.908 140.262 122.727C140.266 129.241 137.332 135.787 129.548 135.796Z" fill="#1A1A1A"/>
<path d="M161.837 118.47L170.996 103.058L180.658 103.066L166.025 127.089L166.039 142.071L157.366 142.064L157.348 126.872L142.824 103.072L152.603 103.075L161.837 118.47Z" fill="#1A1A1A"/>
<path fill-rule="evenodd" clip-rule="evenodd" d="M81.6541 120.901C85.0871 119.261 87.016 116.578 87.0257 112.754C87.0176 105.497 81.9336 103.084 74.4133 103.093L55.8526 103.103L55.8736 139.22L42.2031 103.103L33.2983 103.109L18.3418 142.121L27.1367 142.116L30.2175 133.425L44.9753 133.43L47.9592 142.11L56.9641 142.102L56.9625 142.097L74.9949 142.092C82.1161 142.092 88.9046 138.693 88.9094 130.775C88.9046 125.914 86.4651 122.261 81.6541 120.901ZM37.623 112.727L32.4808 127.04H42.7086L37.7328 112.727H37.623ZM64.5372 109.759L72.652 109.754C75.7376 109.759 78.6197 110.515 78.631 114.234C78.6229 117.514 76.3483 118.887 73.3289 118.88L64.542 118.895L64.5372 109.759ZM73.8313 135.425L64.5469 135.436L64.5437 124.725L73.988 124.717C77.6892 124.716 80.2368 126.304 80.2255 130.291C80.2288 134.339 77.2417 135.43 73.8313 135.425Z" fill="#1A1A1A"/>
</svg>
