<svg width="200" height="201" viewBox="0 0 200 201" fill="none" xmlns="http://www.w3.org/2000/svg">
<path d="M52.1641 97.6799C52.01 98.0787 51.9102 98.5229 51.8648 98.9127C51.8104 99.4567 51.7648 99.9468 51.7648 100.491C51.7649 100.98 51.8105 101.425 51.8648 101.869C51.9192 102.213 51.9643 102.513 52.0641 102.857C52.3542 103.945 52.7537 104.924 53.343 105.813C54.2224 107.191 55.4102 108.324 56.8336 109.113C58.257 109.901 59.8798 110.346 61.6023 110.346C63.325 110.346 64.9484 109.902 66.3719 109.113C67.7952 108.324 68.974 107.191 69.8625 105.813H76.4086C75.1302 109.403 72.5732 112.404 69.3273 114.227C67.0607 115.505 64.413 116.249 61.6023 116.249C58.7919 116.249 56.1356 115.505 53.8781 114.227C50.6322 112.359 48.0753 109.403 46.7969 105.813C46.4524 104.87 46.2076 103.891 46.0625 102.857C46.0081 102.558 45.9625 102.213 45.9625 101.869C45.9172 101.425 45.9172 100.935 45.9172 100.491C45.9172 99.9468 45.9719 99.4023 46.0172 98.9127L46.1617 97.6799H52.1641Z" fill="#494E54"/>
<path d="M96.382 85.1049C103.028 85.1049 106.863 88.6952 108.976 92.4307L103.463 95.1416C102.185 92.6846 99.4737 90.7627 96.382 90.7627C90.9241 90.7628 86.9353 94.9423 86.9352 100.654C86.9352 106.366 90.9149 110.546 96.382 110.546C99.4829 110.546 102.185 108.678 103.463 106.167L108.976 108.824C106.809 112.559 103.028 116.204 96.382 116.204C87.3789 116.204 80.3977 109.902 80.3977 100.654L80.4031 100.214C80.6165 91.2023 87.5195 85.105 96.382 85.1049Z" fill="#494E54"/>
<path d="M115.177 99.7111L127.916 115.65H120.047L117.291 112.06L107.997 99.765L108.586 99.0221L118.179 86.8721L119.213 85.5939H127.082L115.177 99.7111Z" fill="#494E54"/>
<path d="M137.264 110.047H149.957V115.65H130.872V85.5939H137.264V110.047Z" fill="#494E54"/>
<path d="M160.284 97.6439L167.665 85.5939H175L163.485 103.356V115.65H157.093V103.356L145.479 85.5939H152.813L160.284 97.6439Z" fill="#494E54"/>
<path d="M31.3922 109.902H44.0852V115.56H25V85.4486H31.3922V109.902Z" fill="#494E54"/>
<path d="M61.6016 84.751C64.5483 84.751 67.2598 85.54 69.6172 86.9182C72.6271 88.6952 74.9841 91.4514 76.2625 94.7424C76.6524 95.7307 76.8974 96.665 77.0969 97.6986L77.2961 98.9314C77.3414 99.4754 77.3867 99.9649 77.3414 100.509C77.3414 100.998 77.3414 101.443 77.2961 101.887C77.2961 102.186 77.2422 102.531 77.1969 102.875H68.7828C68.3839 103.999 67.749 104.988 66.9602 105.822C66.4706 106.312 65.8812 106.756 65.2375 107.1L64.5031 105.822L63.6148 104.245C64.204 103.946 64.7477 103.456 65.1375 102.867C65.3278 102.567 65.5276 102.223 65.6273 101.878C65.7724 101.434 65.8726 100.99 65.8727 100.5C65.8727 99.9018 65.7729 99.4117 65.5734 98.9221C65.374 98.4778 65.1289 98.0338 64.8297 97.6893C64.5849 97.3448 64.2406 97.0996 63.8961 96.8549C63.2524 96.465 62.4721 96.2205 61.6289 96.2205C60.7858 96.2205 60.0062 96.4651 59.3625 96.8549C59.018 97.0997 58.7183 97.3901 58.4281 97.6893C58.1381 98.0338 57.8932 98.4779 57.6938 98.9221C57.4943 99.4207 57.3945 99.9562 57.3945 100.5C57.3946 100.99 57.4948 101.434 57.6398 101.878C57.7396 102.223 57.9295 102.567 58.1289 102.867C58.5188 103.456 59.0086 103.9 59.6523 104.245L58.7641 105.822L58.0297 107.1C57.386 106.756 56.7966 106.312 56.307 105.822C55.4729 104.988 54.8833 104.009 54.4844 102.875C54.3847 102.576 54.2942 102.231 54.2398 101.887C54.1855 101.443 54.1398 100.998 54.1398 100.509C54.1399 99.9649 54.1854 99.421 54.2852 98.9314C54.3758 98.4873 54.53 98.0884 54.675 97.6986C55.1193 96.5109 55.8083 95.5312 56.7422 94.7424C57.0323 94.4523 57.3766 94.2074 57.7211 94.008C58.8544 93.3189 60.1784 92.9291 61.6109 92.9291C63.0435 92.9291 64.3674 93.3189 65.5008 94.008C65.8996 94.1984 66.2443 94.4432 66.5344 94.7424C67.4229 95.5765 68.1573 96.5653 68.6016 97.6986C68.7918 98.0975 68.8917 98.5417 68.9914 98.9314H71.3484C71.2487 98.4873 71.1489 98.0884 71.0492 97.6986C70.7591 96.6106 70.2695 95.6309 69.6258 94.7424C68.8461 93.6635 67.8575 92.7299 66.6789 92.0408C65.2011 91.1523 63.4786 90.6627 61.6109 90.6627C59.7433 90.6627 58.0208 91.1524 56.543 92.0408C55.3552 92.7299 54.3755 93.6635 53.5867 94.7424H46.95C48.2284 91.4422 50.5858 88.6862 53.5867 86.9182C55.944 85.5401 58.655 84.751 61.6016 84.751Z" fill="#494E54"/>
<path d="M77.242 98.9313C77.1966 98.5415 77.1422 98.0976 77.0969 97.6986C76.8974 96.665 76.6524 95.7307 76.2625 94.7424C74.9841 91.4514 72.6271 88.6952 69.6172 86.9182C67.2598 85.54 64.5483 84.751 61.6016 84.751C58.655 84.751 55.944 85.5401 53.5867 86.9182C50.5858 88.6862 48.2284 91.4422 46.95 94.7424H53.5867C54.3755 93.6635 55.3552 92.7299 56.543 92.0408C58.0208 91.1524 59.7433 90.6627 61.6109 90.6627C63.4786 90.6627 65.2011 91.1523 66.6789 92.0408C67.8575 92.7299 68.8461 93.6635 69.6258 94.7424C70.2695 95.6309 70.7591 96.6106 71.0492 97.6986C71.1489 98.0884 71.2487 98.4873 71.3484 98.9314H68.9914C68.8917 98.5417 68.7918 98.0975 68.6016 97.6986C68.1573 96.5653 67.4229 95.5765 66.5344 94.7424C66.2443 94.4432 65.8996 94.1984 65.5008 94.008C64.3674 93.3189 63.0435 92.9291 61.6109 92.9291C60.1784 92.9291 58.8544 93.3189 57.7211 94.008C57.3766 94.2074 57.0323 94.4523 56.7422 94.7424C55.8083 95.5312 55.1193 96.5109 54.675 97.6986C54.53 98.0884 54.3758 98.4873 54.2852 98.9314C54.1854 99.421 54.1399 99.9649 54.1398 100.509C54.1398 100.998 54.1855 101.443 54.2398 101.887C54.2942 102.231 54.3847 102.576 54.4844 102.875C54.8833 104.009 55.4729 104.988 56.307 105.822C56.7966 106.312 57.386 106.756 58.0297 107.1L58.7641 105.822L59.6523 104.245C59.0086 103.9 58.5188 103.456 58.1289 102.867C57.9295 102.567 57.7396 102.223 57.6398 101.878C57.4948 101.434 57.3946 100.99 57.3945 100.5C57.3945 99.9562 57.4943 99.4207 57.6938 98.9221C57.8932 98.4779 58.1381 98.0338 58.4281 97.6893C58.7183 97.3901 59.018 97.0997 59.3625 96.8549C60.0062 96.4651 60.7858 96.2205 61.6289 96.2205C62.4721 96.2205 63.2524 96.465 63.8961 96.8549C64.2406 97.0996 64.5849 97.3448 64.8297 97.6893C65.1289 98.0338 65.374 98.4778 65.5734 98.9221C65.7729 99.4117 65.8727 99.9018 65.8727 100.5C65.8726 100.99 65.7724 101.434 65.6273 101.878C65.5276 102.223 65.3278 102.567 65.1375 102.867C64.7477 103.456 64.204 103.946 63.6148 104.245L64.5031 105.822L65.2375 107.1C65.8812 106.756 66.4706 106.312 66.9602 105.822C67.749 104.988 68.3839 103.999 68.7828 102.875H77.1969C77.2422 102.531 77.2961 102.186 77.2961 101.887C77.3414 101.443 77.3414 100.998 77.3414 100.509C77.3867 99.9649 77.3414 99.4754 77.2961 98.9314" fill="#5EAAD7"/>
</svg>
