<svg width="200" height="201" viewBox="0 0 200 201" fill="none" xmlns="http://www.w3.org/2000/svg">
<path d="M131.307 111.529C134.034 112.696 135.661 114.891 135.661 117.395C135.661 120.709 133.114 122.684 128.839 122.684C124.305 122.684 122.199 118.693 121.66 117.472L120.997 115.962H112.505L112.491 115.951H104.621C102.475 119.534 98.1452 122.842 93.1138 122.842C84.0313 122.842 79.4995 115.743 78.9177 108.736H116.041V107.202C116.041 104.297 115.738 101.565 115.173 99.0237C116.236 102.283 118.658 105.66 123.736 108.049C125.591 108.934 128.389 110.253 131.307 111.529ZM92.5797 89.2615C100.177 89.2615 103.901 94.5041 104.978 99.8404H79.6927C81.0139 94.4933 85.6986 89.2615 92.5797 89.2615ZM167.074 89.4157V79.8315H159.183V68.5H149.496V79.8315H129.981C120.967 79.8366 114.427 85.8959 114.427 94.2482C114.427 95.142 114.507 96.1101 114.687 97.1156C111.618 86.4754 103.523 79.8315 92.6532 79.8315C79.356 79.8315 69.1937 90.1827 68.3403 104.207V101.228C68.3403 89.4265 58.7395 79.8315 46.9409 79.8315C35.143 79.8315 25.543 89.4265 25.543 101.228V131.902H35.3499V101.228C35.3499 94.8399 40.5485 89.637 46.9409 89.637C53.3317 89.637 58.5333 94.8399 58.5333 101.228V131.902H68.3403V108.036C69.1987 122.112 79.493 132.499 92.9617 132.499C101.185 132.499 108.436 127.723 112.545 122.194C115.611 128.746 121.599 132.499 128.994 132.499C137.569 132.499 146.248 127.023 146.248 116.554C146.248 110.286 142.607 105.164 135.998 102.127C135.152 101.742 134.47 101.418 133.816 101.108L133.727 101.063C132.989 100.714 132.272 100.378 131.388 99.9759C127.069 98.0369 125.013 96.6147 125.013 93.784C125.013 91.292 127.239 89.4157 129.993 89.4157H149.496V116.735C149.496 125.43 156.567 132.499 165.261 132.499V122.813C161.908 122.813 159.183 120.085 159.183 116.735V89.4157C163.058 89.4208 166.045 89.4157 167.074 89.4157Z" fill="#B0B0B0"/>
<path d="M171.567 128.68H171.14V129.315H171.567C171.774 129.315 171.921 129.196 171.921 128.978C171.921 128.769 171.757 128.68 171.567 128.68ZM171.921 130.947L171.52 129.987H171.145V130.947H170.394V128.009H171.567C172.18 128.009 172.673 128.346 172.673 129.007C172.673 129.341 172.536 129.678 172.221 129.843L172.7 130.947H171.921ZM171.474 127.256C170.149 127.256 169.25 128.226 169.25 129.532C169.25 130.848 170.14 131.812 171.474 131.812C172.791 131.812 173.697 130.831 173.697 129.532C173.697 128.226 172.8 127.256 171.474 127.256ZM171.474 132.5C169.742 132.5 168.49 131.265 168.49 129.532C168.49 127.807 169.76 126.566 171.474 126.566C173.187 126.566 174.459 127.815 174.459 129.532C174.459 131.265 173.197 132.5 171.474 132.5Z" fill="#B0B0B0"/>
</svg>
