<?xml version="1.0" encoding="UTF-8"?>
<svg id="Layer_3" data-name="Layer 3" xmlns="http://www.w3.org/2000/svg" xmlns:xlink="http://www.w3.org/1999/xlink" viewBox="0 0 572.98 140">
  <defs>
    <style>
      .cls-1 {
        fill: url(#linear-gradient-2);
      }

      .cls-2 {
        fill: #fff;
      }

      .cls-3 {
        fill: url(#linear-gradient);
      }
    </style>
    <linearGradient id="linear-gradient" x1="286.49" y1="134.03" x2="286.49" y2="2.19" gradientTransform="translate(0 138.05) scale(1 -1)" gradientUnits="userSpaceOnUse">
      <stop offset="0" stop-color="#e6e7e8"/>
      <stop offset=".17" stop-color="#d2d3d5"/>
      <stop offset=".52" stop-color="#b0b1b3"/>
      <stop offset=".81" stop-color="#9a9c9f"/>
      <stop offset="1" stop-color="#939598"/>
    </linearGradient>
    <linearGradient id="linear-gradient-2" x1="286.49" y1="177.38" x2="286.49" y2="-97.65" gradientTransform="translate(0 138.05) scale(1 -1)" gradientUnits="userSpaceOnUse">
      <stop offset=".19" stop-color="#0081c6"/>
      <stop offset=".71" stop-color="#004f86"/>
      <stop offset="1" stop-color="#003767"/>
    </linearGradient>
  </defs>
  <path class="cls-3" d="m567.39,15.41h0c-5.6-8.22-14.85-13.22-26.06-14.07H50.02c-6.02,0-12.25,3.92-15.15,9.54l-.19.36L3.76,87.63c-5.41,13.3-4.97,26.07,1.23,35.97,5.61,8.93,15.24,14.28,27.17,15.06h490.61c6,0,12.23-3.93,15.13-9.53l.23-.43,32.46-80.08.24-.7c3.77-12.14,2.55-23.68-3.44-32.49v-.02Z"/>
  <path class="cls-1" d="m564.5,17.38c-4.99-7.33-13.31-11.78-23.43-12.55H50.02c-4.67,0-9.75,3.21-12.04,7.67l-.12.24-.11.25L7,88.95c-4.97,12.22-4.63,23.88.95,32.79,4.99,7.95,13.64,12.72,24.38,13.42h490.43c4.68,0,9.74-3.22,12.04-7.67l.12-.24.09-.24,32.31-79.68.09-.22.07-.24c3.45-11.11,2.38-21.58-2.99-29.49h0Z"/>
  <path class="cls-2" d="m135.08,70.52c.2-13.78,9.17-16.99,15.14-16.99h20.79l3.99-10c.79-2.35-.44-4.24-2.84-4.24h-29.32c-6.35,0-29.16,3.12-29.36,31.47-.2,28.37,23.01,31,29.36,31h33.74v-14.24h-26.37c-5.97,0-14.94-3.21-15.14-17h0Zm96.71-8.55h-25.83v-22.66h-20.45v62.47h20.36v-25.26h25.72v25.25h20.16v-62.46h-19.96v22.66Zm76.77,25.57h-23.74c-2.19,0-2.09-1.75-2.09-1.75v-46.48h-20.26s.03,40.04,0,50.5c0,13.66,13.45,11.97,14.03,11.97h30.8l3.96-9.92c.83-2.37-.33-4.27-2.69-4.32h0Zm120.75-22.75l-3.4,8.5c-.76,2.34.45,4.19,2.84,4.19h10.22v10.04h-13.3c-5.97,0-14.94-3.21-15.14-17,.2-13.78,9.17-16.99,15.14-16.99h29.77l4.04-10.13c.7-2.3-.51-4.09-2.88-4.09h-38.29c-6.36,0-29.17,3.1-29.37,31.46-.2,28.37,23.02,31,29.37,31h42.71l-.11-36.99h-31.61,0Zm-64.93-25.46h-23.89c-1.44,0-2.24.23-3.18,2.19l-23.96,60.23h20.86l18.24-46.31,8.39,21.25h-10.51l-3.85,9.55c-.92,2.45.29,4.41,2.77,4.41h16.95l4.5,11.09h20.83l-24.03-60.45c-.94-1.96-1.67-1.96-3.11-1.96h-.01Zm200.12-21.92c-4.99-7.33-13.31-11.78-23.43-12.55H50.02c-4.67,0-9.75,3.21-12.04,7.67l-.12.24-.11.25L7,88.95c-4.97,12.22-4.63,23.88.95,32.79,4.99,7.95,13.64,12.72,24.38,13.42h490.43c4.68,0,9.74-3.22,12.04-7.67l.12-.24.09-.24,32.31-79.68.09-.22.07-.24c3.45-11.11,2.38-21.58-2.99-29.49v.03Zm-2.52,27.79l-17.76,43.82h-48.89c-3.05,0-4.26-.63-4.26-3.53l.04-8.56h28.18l3.23-8.1.03-.08c.95-2.35-.06-4.29-2.25-4.53h-29.2l-.04-8.53c0-2.9,1.21-3.53,4.26-3.53h32.56v-12.89l-42.87.06c-7.79.55-14.02,6.72-14.66,14.48l.02,32.17c0,8.75,7.11,15.84,15.85,15.84h48.47c2.1.05,3.25,1.53,2.91,3.51l-7.92,19.54c-1.3,2.51-4.4,4.56-6.93,4.56H32.7c-15.99-1.03-24.98-12.4-23.19-27.66h80.87c5.93,0,18.1-4.79,18.1-19.41s-11.88-19.5-18.1-19.5h-26.53c-3.16,0-5.74-2.15-5.74-4.73s2.57-4.69,5.74-4.69l35.81.07,3.91-9.82c.92-2.45-.3-4.4-2.77-4.4,0,0-43.99-.02-45.42-.02-5.94,0-18.11,4.8-18.11,19.41s11.88,19.5,18.11,19.5h26.52c3.16,0,5.73,2.15,5.73,4.73s-2.57,4.7-5.73,4.7H18.32c-2.41,0-3.61-1.91-2.83-4.28L43.07,15.15c1.31-2.52,4.4-4.56,6.93-4.56h490.62c18.11,1.36,27.11,16.04,21.36,34.58v.03Z"/>
  <path class="cls-2" d="m523.69,105.04c3.71,0,6.66,3.02,6.66,6.78s-2.95,6.81-6.69,6.81-6.72-2.98-6.72-6.81,3.01-6.78,6.72-6.78h.03Zm-.03,1.05c-2.99,0-5.42,2.56-5.42,5.73s2.44,5.76,5.45,5.76c3.01.03,5.42-2.54,5.42-5.73s-2.41-5.75-5.42-5.75h-.03Zm-1.27,9.68h-1.21v-7.57c.63-.09,1.24-.18,2.14-.18,1.14,0,1.9.24,2.35.57.45.33.69.85.69,1.57,0,1-.66,1.59-1.47,1.84v.06c.66.12,1.11.72,1.27,1.84.18,1.18.36,1.63.48,1.87h-1.27c-.18-.24-.36-.94-.51-1.93-.18-.96-.66-1.32-1.63-1.32h-.84v3.25h0Zm0-4.19h.87c1,0,1.84-.36,1.84-1.3,0-.66-.48-1.32-1.84-1.32-.39,0-.66.03-.87.06v2.56Z"/>
</svg>