<svg width="200" height="200" viewBox="0 0 200 200" fill="none" xmlns="http://www.w3.org/2000/svg">
<path d="M92.7363 83.0322C92.2114 82.6539 91.5907 82.4598 90.9548 82.4598C90.7933 82.4598 90.6318 82.4747 90.4753 82.4996C89.6728 82.624 88.9663 83.0521 88.4919 83.6992C87.5077 85.0381 87.8105 86.9147 89.1631 87.8853C90.5207 88.8559 92.4234 88.5573 93.4075 87.2233C94.3917 85.8843 94.0889 84.0078 92.7363 83.0372V83.0322Z" fill="#008DF7"/>
<path d="M103.037 57.9898C103.037 59.6447 101.677 60.9862 99.9988 60.9862C98.3209 60.9862 96.9606 59.6447 96.9606 57.9898C96.9606 56.3348 98.3209 54.9933 99.9988 54.9933C101.677 54.9933 103.037 56.3348 103.037 57.9898Z" fill="#008DF7"/>
<path d="M86.2967 65.6306C85.9838 65.5311 85.6709 65.4813 85.358 65.4813C84.0761 65.4813 82.88 66.2877 82.4661 67.552C81.9463 69.1249 82.8244 70.8173 84.4193 71.33C86.0141 71.8377 87.73 70.9765 88.2498 69.4036C88.7697 67.8307 87.8915 66.1384 86.2967 65.6257V65.6306Z" fill="#008DF7"/>
<path d="M99.9989 77.5663C102.46 77.5663 104.455 75.5985 104.455 73.1711C104.455 70.7437 102.46 68.7759 99.9989 68.7759C97.5377 68.7759 95.5425 70.7437 95.5425 73.1711C95.5425 75.5985 97.5377 77.5663 99.9989 77.5663Z" fill="#008DF7"/>
<path d="M107.261 83.0322C107.796 82.6439 108.422 82.4598 109.043 82.4598C109.982 82.4598 110.91 82.8878 111.506 83.6942C112.495 85.0282 112.192 86.9097 110.834 87.8803C110.178 88.3532 109.376 88.5423 108.573 88.4179C107.771 88.2935 107.07 87.8654 106.59 87.2183C105.606 85.8843 105.904 84.0028 107.261 83.0322Z" fill="#008DF7"/>
<path d="M114.64 65.4808C114.332 65.4808 114.014 65.5305 113.701 65.6251C112.106 66.1378 111.233 67.8302 111.748 69.4031C112 70.1646 112.535 70.7819 113.257 71.1452C113.979 71.5086 114.801 71.5733 115.574 71.3244C116.346 71.0755 116.977 70.5479 117.345 69.8311C117.713 69.1194 117.779 68.308 117.527 67.5464C117.108 66.2821 115.912 65.4758 114.63 65.4758L114.64 65.4808Z" fill="#008DF7"/>
<path fill-rule="evenodd" clip-rule="evenodd" d="M122.312 49.7181C125.648 53.2124 127.541 57.9908 128.247 63.2621C128.924 68.2944 128.757 71.7239 128.757 71.7239C128.757 71.7239 128.924 75.1534 128.247 80.1858C127.541 85.457 125.648 90.2305 122.312 93.7297C118.769 97.0199 113.924 98.8865 108.58 99.5833C103.477 100.25 99.9999 100.086 99.9999 100.086C99.9999 100.086 96.5226 100.25 91.4202 99.5833C86.0755 98.8865 81.2356 97.0199 77.6876 93.7297C74.3516 90.2355 72.459 85.457 71.7525 80.1858C71.0762 75.1534 71.2427 71.7239 71.2427 71.7239C71.2427 71.7239 71.0762 68.2944 71.7525 63.2621C72.459 57.9908 74.3516 53.2124 77.6876 49.7181C81.2356 46.4279 86.0755 44.5614 91.4202 43.8645C96.5226 43.1975 99.9999 43.3618 99.9999 43.3618C99.9999 43.3618 103.472 43.1975 108.58 43.8645C113.924 44.5614 118.764 46.4279 122.312 49.7181ZM90.9407 90.4495C92.5103 90.4495 94.0597 89.7377 95.0489 88.3938V88.3987C96.4822 86.4475 96.2753 83.7995 94.6855 82.0872L95.5637 80.8976L93.9234 79.7229L93.0453 80.9125C92.1469 80.5043 91.1476 80.3699 90.1534 80.5242C88.816 80.7283 87.6451 81.4401 86.8477 82.5202C85.2075 84.7502 85.7071 87.8811 87.9681 89.4988C88.8665 90.1409 89.9061 90.4495 90.9407 90.4495ZM93.1109 73.1724C93.1109 76.9205 96.1996 79.9668 99.9999 79.9668L99.9948 79.9717C103.795 79.9717 106.884 76.9255 106.884 73.1774C106.884 69.7677 104.33 66.9504 101.009 66.4626V62.8887C103.321 62.4208 105.062 60.4049 105.062 57.9908C105.062 55.2332 102.791 52.9933 99.9948 52.9933C97.1989 52.9933 94.9278 55.2332 94.9278 57.9908C94.9278 60.4049 96.6689 62.4258 98.9804 62.8887V66.4626C96.7194 66.7911 94.8167 68.2048 93.8326 70.151L90.3856 69.046C90.6531 66.7364 89.245 64.4766 86.9184 63.7299C84.2637 62.8788 81.3971 64.3173 80.5341 66.9355C79.671 69.5537 81.1296 72.3809 83.7893 73.2321C84.3041 73.3964 84.829 73.476 85.3488 73.476C87.1556 73.476 88.8564 72.5153 89.7598 70.9424L93.2118 72.0475C93.1513 72.4158 93.1109 72.7891 93.1109 73.1724ZM109.059 90.4545C110.119 90.4545 111.153 90.126 112.027 89.4988C114.288 87.8811 114.787 84.7502 113.147 82.5202C111.709 80.569 109.094 79.9419 106.949 80.9075L106.071 79.7179L104.431 80.8926L105.309 82.0822C103.719 83.7995 103.513 86.4426 104.951 88.3938C105.743 89.4739 106.919 90.1807 108.257 90.3898C108.524 90.4346 108.792 90.4545 109.059 90.4545ZM116.21 73.2321C117.497 72.819 118.542 71.9379 119.158 70.7483V70.7533C119.769 69.5636 119.88 68.2098 119.461 66.9405C118.598 64.3173 115.736 62.8788 113.076 63.7299C110.75 64.4766 109.342 66.7364 109.609 69.046L108.191 69.4989L108.817 71.4004L110.235 70.9474C110.719 71.7936 111.446 72.4805 112.345 72.9335C113.066 73.2968 113.854 73.481 114.641 73.481C115.166 73.481 115.696 73.3964 116.21 73.2321Z" fill="#008DF7"/>
<path d="M7.69495 140.445L11.2894 137.642C12.3623 139.445 14.0146 140.472 15.9295 140.472C18.0164 140.472 19.1482 139.128 19.1482 137.668C19.1482 135.896 17.0024 135.351 14.7389 134.664C11.896 133.775 8.73616 132.69 8.73616 128.712C8.73616 125.368 11.6968 122.734 15.7529 122.734C19.1753 122.734 21.1491 124.02 22.8603 125.765L19.6099 128.199C18.7136 126.881 17.4641 126.198 15.7801 126.198C13.8652 126.198 12.8195 127.23 12.8195 128.574C12.8195 130.234 14.8521 130.775 17.1427 131.52C20.0128 132.436 23.2632 133.695 23.2632 137.7C23.2632 140.99 20.5968 144.191 15.9567 144.191C12.1269 144.191 9.60533 142.589 7.69043 140.445H7.69495Z" fill="black"/>
<path d="M29.2386 127.171V129.118C30.3114 127.716 31.9955 126.828 34.0824 126.828C36.7216 126.828 38.5777 127.913 39.5917 129.716C40.7506 127.971 42.7515 126.828 45.1599 126.828C49.714 126.828 52.0635 129.515 52.0635 133.837V143.905H48.0617V134.15C48.0617 131.717 46.7851 130.176 44.3767 130.176C42.2581 130.176 40.6374 131.636 40.6374 134.552V143.905H36.6628V134.038C36.6628 131.663 35.445 130.176 33.0955 130.176C30.8909 130.176 29.2657 131.663 29.2657 134.636V143.905H25.3499V127.171H29.2386Z" fill="black"/>
<path d="M54.0287 135.552C54.0287 130.002 58.1483 126.828 62.4398 126.828C64.6716 126.828 66.6725 127.743 67.8903 129.172V127.171H71.8061V143.905H67.8903V141.731C66.6454 143.276 64.6128 144.249 62.381 144.249C58.2931 144.249 54.0287 141.017 54.0287 135.552ZM68.094 135.494C68.094 132.663 65.9165 130.346 63.0193 130.346C60.122 130.346 57.8857 132.605 57.8857 135.494C57.8857 138.382 60.1175 140.7 63.0193 140.7C65.9211 140.7 68.094 138.382 68.094 135.494Z" fill="black"/>
<path d="M78.3519 127.171V129.658C79.135 127.997 80.5565 127.171 82.7023 127.171C83.92 127.171 84.9341 127.457 85.6901 127.886L84.2098 131.547C83.6303 131.176 82.9649 130.891 81.8603 130.891C79.5968 130.891 78.379 132.092 78.379 134.98V143.905H74.4632V127.171H78.3519Z" fill="black"/>
<path d="M89.5474 127.171V124.626L93.4904 121.965V127.171H96.9399V130.632H93.4904V136.896C93.4904 139.811 93.8978 140.271 96.9399 140.271V143.905H96.3877C91.1364 143.905 89.5429 142.245 89.5429 136.927V130.632H86.6411V127.171H89.5474Z" fill="black"/>
<path d="M104.391 126.743H98.7367V123.024H114.02V126.743H108.334V143.905H104.391V126.743Z" fill="black"/>
<path d="M116.188 122.738H120.104V129.176C121.263 127.747 123.033 126.832 125.179 126.832C129.357 126.832 131.906 129.52 131.906 133.985V143.91H127.904V134.413C127.904 131.81 126.627 130.181 124.074 130.181C121.87 130.181 120.131 131.81 120.131 134.73V143.91H116.188V122.738Z" fill="black"/>
<path d="M136.397 120.649C137.931 120.649 138.864 121.622 138.864 123.082C138.864 124.542 137.936 125.484 136.397 125.484C134.857 125.484 133.929 124.511 133.929 123.082C133.929 121.653 134.889 120.649 136.397 120.649ZM134.423 127.172H138.366V143.906H134.423V127.172Z" fill="black"/>
<path d="M144.803 127.171V129.23C145.935 127.77 147.705 126.828 149.878 126.828C154.056 126.828 156.605 129.515 156.605 133.98V143.905H152.63V134.382C152.63 131.806 151.354 130.176 148.801 130.176C146.569 130.176 144.826 131.806 144.826 134.726V143.905H140.91V127.171H144.803Z" fill="black"/>
<path d="M172.499 141.673C171.254 143.245 169.221 144.249 166.958 144.249C162.87 144.249 158.606 141.017 158.606 135.552C158.606 130.087 162.725 126.828 167.017 126.828C169.249 126.828 171.25 127.801 172.467 129.314V127.171H176.383V143.477C176.383 148.169 173.368 152 167.623 152C163.214 152 160.489 150 158.923 147.196L162.404 145.106C163.622 147.339 164.984 148.451 167.682 148.451C170.638 148.451 172.494 146.165 172.494 143.62V141.673H172.499ZM172.675 135.494C172.675 132.663 170.498 130.346 167.601 130.346C164.704 130.346 162.467 132.605 162.467 135.494C162.467 138.382 164.699 140.7 167.601 140.7C170.503 140.7 172.675 138.382 172.675 135.494Z" fill="black"/>
<path d="M177.8 140.187L181.426 138.472C182.236 140.017 183.69 140.906 185.514 140.906C187.338 140.906 188.416 139.963 188.416 138.874C188.416 137.673 186.532 137.387 184.441 136.959C181.512 136.387 178.497 135.414 178.497 131.922C178.497 129.235 181.109 126.774 185.17 126.801C188.533 126.801 190.797 128.145 192.101 130.261L188.764 131.918C188.067 130.744 186.79 130.003 185.17 130.003C183.314 130.003 182.445 130.86 182.445 131.806C182.445 132.922 183.807 133.208 186.333 133.753C189.117 134.324 192.309 135.271 192.309 138.789C192.309 141.133 190.19 144.281 185.351 144.254C181.639 144.254 179.172 142.825 177.809 140.191L177.8 140.187Z" fill="black"/>
</svg>
