<svg width="239" height="44" viewBox="0 0 239 44" fill="none" xmlns="http://www.w3.org/2000/svg">
<path fill-rule="evenodd" clip-rule="evenodd" d="M234.723 27.9244C234.663 28.5674 234.493 29.1277 234.259 29.6359C233.821 30.8125 233.002 31.673 232.139 32.3813L236.321 32.7508C236.321 32.7508 236.454 32.7402 236.539 32.8829C236.618 33.0176 236.571 33.1164 236.571 33.1164L236.42 33.4712L236.427 33.4725L234.527 37.9174L216.218 36.5448C216.218 36.5448 216.055 36.5781 215.943 36.3647C215.817 36.1285 215.903 35.9538 215.903 35.9538L216.32 34.6985C214.402 34.6691 213.029 34.6251 213.029 34.6251C208.995 34.6024 206.963 33.1364 205.99 31.6703C204.993 30.4083 204.77 29.041 204.882 28.3967L207.024 15.7863C208.237 10.4516 213.636 9.33508 217.952 9.33508H229.215C232.107 9.40979 234.234 10.1902 235.539 11.6589C237.056 13.3691 236.919 15.4115 236.84 15.9971L234.723 27.9244ZM225.98 27.4642L227.808 15.9424C227.811 15.9331 227.909 15.2461 227.571 14.6378C227.266 14.3203 226.807 14.0535 226.11 13.9481L218.538 13.9708C218.172 13.9708 216.943 14.0841 216.254 15.5462C216.182 15.745 216.115 15.9517 216.067 16.1959L214.346 26.1315L214.344 26.1425C214.053 27.506 213.824 28.5825 214.33 29.2438C214.662 29.68 215.342 29.9588 216.405 30.0949L223.342 30.0935H223.395C223.708 30.0935 225.305 29.9695 225.98 27.4642Z" fill="#3D3D3D"/>
<path d="M34.4149 9.40137H25.7612C25.7612 9.40137 25.6711 9.40137 25.6286 9.44672C25.5769 9.50142 25.561 9.56545 25.561 9.56545L22.0746 30.2598L12.8523 30.2305H12.8019C12.3286 30.2305 11.5691 29.9624 11.0971 29.4594C10.783 29.1259 10.6424 28.7377 10.6782 28.3229L13.8796 9.72153C13.8796 9.72153 13.8902 9.59613 13.812 9.50409C13.7285 9.4027 13.5973 9.40137 13.5973 9.40137H5.2034C5.2034 9.40137 5.11458 9.43205 5.08541 9.45606C5.0642 9.4734 5.00455 9.56145 5.00455 9.56145L1.65204 28.3015C1.64541 28.3269 1.21989 30.1411 2.58131 31.7993C2.97767 32.3929 3.58746 32.9865 4.54058 33.4815C6.53698 34.5153 9.24921 34.6701 10.7074 34.6701H30.328C30.328 34.6701 30.4009 34.6394 30.4287 34.578C30.446 34.5393 30.4831 34.2685 30.4831 34.2685L34.6975 9.72153C34.6975 9.72153 34.7052 9.61748 34.6297 9.50409C34.562 9.40137 34.4149 9.40137 34.4149 9.40137Z" fill="#3D3D3D"/>
<path d="M80.6418 9.43321C80.5662 9.32782 80.4297 9.33311 80.4297 9.33311L68.1398 9.3505L55.256 9.36918C55.256 9.36918 55.1805 9.3585 55.1367 9.40519C55.0691 9.47856 55.0598 9.53192 55.0598 9.53192L54.4408 13.1271C54.4408 13.1271 54.3652 13.2765 54.5018 13.4686C54.6105 13.6206 54.7656 13.686 54.7656 13.686H63.117L63.1899 13.6887L59.6598 34.2497C59.6598 34.2497 59.6518 34.3537 59.7274 34.4671C59.795 34.5698 59.9421 34.5698 59.9421 34.5698H68.5971C68.5971 34.5698 68.686 34.5698 68.7297 34.5245C68.7814 34.4698 68.7973 34.4058 68.7973 34.4058L72.2824 13.7114V13.7047C72.3818 13.686 72.472 13.69 72.472 13.69L79.9127 13.666C79.9127 13.666 79.971 13.5886 79.9803 13.5633C80.0187 13.4632 80.0665 13.2645 80.0665 13.2645L80.712 9.65332C80.712 9.65332 80.7094 9.52659 80.6418 9.43321Z" fill="#3D3D3D"/>
<path d="M169.518 30.3356L162.956 30.2569C162.956 30.2569 162.866 30.2623 162.732 30.2623C162.289 30.2623 161.191 30.1956 160.574 29.5672C160.252 29.2377 160.098 28.7855 160.112 28.2466L163.277 9.67325C163.277 9.67325 163.297 9.55319 163.209 9.45448C163.104 9.33708 162.996 9.35309 162.996 9.35309H154.567C154.567 9.35309 154.484 9.35843 154.444 9.39044C154.39 9.43313 154.372 9.51451 154.372 9.51451L151.042 28.6588C151.037 28.7162 150.867 30.0715 151.921 31.5149C151.921 31.5149 152.037 31.6496 152.071 31.6976C152.819 32.7088 154.107 33.8641 156.731 34.5097L168.958 34.6711C168.958 34.6711 169.013 34.6711 169.046 34.5618C169.071 34.4764 169.115 34.2736 169.115 34.2736L169.797 30.6585C169.797 30.6585 169.817 30.5384 169.732 30.4397C169.641 30.3316 169.518 30.3356 169.518 30.3356Z" fill="#3D3D3D"/>
<path d="M54.6778 30.3356L48.116 30.2569C48.116 30.2569 48.0258 30.2623 47.8919 30.2623C47.4492 30.2623 46.3516 30.1956 45.7338 29.5672C45.4117 29.2377 45.2579 28.7855 45.2725 28.2466L48.4368 9.67325C48.4368 9.67325 48.4567 9.55319 48.3692 9.45448C48.2644 9.33708 48.1557 9.35309 48.1557 9.35309H39.7274C39.7274 9.35309 39.6439 9.35843 39.6041 9.39044C39.5498 9.43313 39.5312 9.51451 39.5312 9.51451L36.2026 28.6588C36.1973 28.7162 36.0276 30.0715 37.0815 31.5149C37.0815 31.5149 37.1968 31.6496 37.2313 31.6976C37.9789 32.7088 39.2674 33.8641 41.8908 34.5097L54.1171 34.6711C54.1171 34.6711 54.1728 34.6711 54.2046 34.5618C54.2311 34.4764 54.2735 34.2736 54.2735 34.2736L54.9575 30.6585C54.9575 30.6585 54.9774 30.5384 54.8926 30.4397C54.8011 30.3316 54.6778 30.3356 54.6778 30.3356Z" fill="#3D3D3D"/>
<path fill-rule="evenodd" clip-rule="evenodd" d="M190.716 9.26471C195.019 9.25921 196.14 9.25778 198.239 9.63975C199.863 9.9359 201.128 10.6656 202.004 11.6541C203.501 13.3389 203.361 15.3613 203.283 15.9416L201.167 27.8689C201.093 28.3958 200.938 28.8747 200.746 29.3336C199.827 32.0097 197.055 33.6678 194.388 34.2268C193.08 34.5803 189.511 34.671 186.192 34.671C182.692 34.671 179.474 34.5696 179.474 34.5696C175.441 34.5469 173.41 33.0822 172.439 31.6175C171.44 30.3555 171.214 28.9855 171.328 28.3411L173.467 15.7295C174.325 11.9729 177.232 10.2481 180.421 9.65576C182.442 9.27957 183.758 9.26623 188.843 9.26623C189.529 9.26623 190.15 9.26543 190.716 9.26471ZM190.609 29.5911C190.898 29.5911 192.38 29.4724 193.005 27.1459L194.768 16.0763C194.768 15.9589 194.727 15.0651 194.406 14.8077C194.154 14.6062 193.885 14.4115 193.487 14.3968L184.274 14.2794C184.274 14.2794 184.261 14.2781 184.237 14.2781C183.979 14.2781 182.429 14.3661 181.603 16.3938L179.955 26.9978C179.949 27.0258 179.71 28.1424 180.301 28.8894C180.619 29.295 181.14 29.5311 181.848 29.5911L190.559 29.5898L190.609 29.5911Z" fill="#3D3D3D"/>
<path fill-rule="evenodd" clip-rule="evenodd" d="M139.356 9.32119C140.814 9.32119 143.526 9.4786 145.523 10.5111C146.476 11.006 147.085 11.5997 147.482 12.1933C148.843 13.8501 148.418 15.6657 148.411 15.6911L144.904 34.6219C144.904 34.6219 144.844 34.7099 144.823 34.7273C144.793 34.75 144.705 34.782 144.705 34.782H136.311C136.311 34.782 136.18 34.7806 136.095 34.6793C136.018 34.5872 136.028 34.4618 136.028 34.4618L137.463 26.4271H125.736L124.31 34.3804C124.31 34.3804 124.253 34.6859 124.236 34.7246C124.208 34.786 124.153 34.782 124.153 34.782L115.721 34.6913C115.721 34.6913 115.534 34.6032 115.455 34.4445C115.365 34.2671 115.399 34.1297 115.399 34.1297L118.705 15.9712C119.422 10.5138 125.809 9.2785 126.952 9.2785L139.356 9.32119ZM126.524 21.8808H138.244L139.385 15.6697C139.421 15.2548 139.28 14.8666 138.966 14.5331C138.494 14.0315 137.734 13.7621 137.261 13.7621L131.118 13.7341C128.875 13.7781 128.002 14.9053 127.701 15.4789L126.524 21.8808Z" fill="#3D3D3D"/>
<path fill-rule="evenodd" clip-rule="evenodd" d="M85.1274 9.27942C85.1274 9.27942 99.7649 9.00462 104.699 9.27942C109.06 9.52355 113.414 12.4944 113.684 16.9886C113.933 21.1547 110.235 24.2443 105.653 25.6476L110.288 34.4387C110.288 34.4387 110.332 34.5428 110.296 34.6575C110.264 34.7602 110.117 34.7602 110.117 34.7602H101.463C101.463 34.7602 101.373 34.7602 101.315 34.7149C101.243 34.6602 101.205 34.5961 101.205 34.5961L96.7611 26.4801H91.2465L89.6478 34.5961C89.6478 34.5961 89.6319 34.6602 89.5788 34.7149C89.5364 34.7602 89.4476 34.7602 89.4476 34.7602H80.7939C80.7939 34.7602 80.6454 34.7602 80.5778 34.6575C80.5023 34.5428 80.51 34.4387 80.51 34.4387L84.8331 9.8357C84.8331 9.8357 84.8888 9.55023 84.9431 9.38481C84.9855 9.25674 85.1274 9.27942 85.1274 9.27942ZM98.2083 21.7764C102.485 21.4976 104.37 19.8154 104.741 18.6455C105.094 17.5316 105.605 13.8137 98.5967 13.8137H93.318L91.8519 21.7764H98.2083Z" fill="#3D3D3D"/>
</svg>
